<svg width="800" height="450" viewBox="0 0 800 450" fill="none" xmlns="http://www.w3.org/2000/svg">
  <rect width="800" height="450" fill="#F8FAFC"/>

  <!-- Top bar -->
  <rect width="800" height="44" fill="white" stroke="#E2E8F0" stroke-width="1"/>
  <circle cx="24" cy="22" r="12" fill="#1E40AF"/>
  <text x="18" y="26" font-family="sans-serif" font-size="11" font-weight="bold" fill="white">A</text>
  <text x="42" y="26" font-family="sans-serif" font-size="12" font-weight="bold" fill="#1E293B">Argon Docs</text>

  <!-- Back + filename -->
  <text x="140" y="26" font-family="sans-serif" font-size="11" fill="#64748B">← Tilbake</text>
  <text x="210" y="26" font-family="sans-serif" font-size="11" font-weight="600" fill="#1E293B">faktura-equinor-003.pdf</text>

  <!-- Template badge -->
  <rect x="390" y="13" width="52" height="18" rx="9" fill="#EFF6FF"/>
  <text x="400" y="26" font-family="sans-serif" font-size="9" font-weight="600" fill="#1E40AF">Faktura</text>

  <!-- Field count + confidence -->
  <text x="560" y="26" font-family="monospace" font-size="10" fill="#64748B">10/10 felt</text>
  <circle cx="636" cy="22" r="3" fill="#10B981"/>
  <text x="644" y="26" font-family="monospace" font-size="10" fill="#10B981">94%</text>

  <!-- Export buttons -->
  <rect x="700" y="12" width="36" height="20" rx="4" fill="white" stroke="#E2E8F0"/>
  <text x="708" y="26" font-family="monospace" font-size="9" fill="#64748B">CSV</text>
  <rect x="742" y="12" width="42" height="20" rx="4" fill="#1E40AF"/>
  <text x="750" y="26" font-family="monospace" font-size="9" font-weight="600" fill="white">JSON</text>

  <!-- LEFT PANEL: Dark PDF viewer -->
  <rect y="44" width="400" height="406" fill="#0F172A"/>

  <!-- PDF page mockup -->
  <rect x="40" y="68" width="320" height="350" rx="4" fill="white" opacity="0.95"/>

  <!-- PDF content: Invoice header -->
  <text x="60" y="100" font-family="sans-serif" font-size="16" font-weight="bold" fill="#1E293B">FAKTURA</text>
  <rect x="240" y="84" width="100" height="22" rx="3" fill="#DBEAFE" opacity="0.6"/>
  <text x="250" y="100" font-family="monospace" font-size="11" fill="#1E40AF">F-2024-003</text>

  <!-- Highlighted fields on PDF -->
  <text x="60" y="130" font-family="sans-serif" font-size="10" fill="#64748B">Fakturadato:</text>
  <rect x="130" y="119" width="80" height="16" rx="2" fill="#DBEAFE" opacity="0.5"/>
  <text x="135" y="130" font-family="sans-serif" font-size="10" fill="#1E293B">15.03.2024</text>

  <text x="60" y="152" font-family="sans-serif" font-size="10" fill="#64748B">Forfallsdato:</text>
  <rect x="130" y="141" width="80" height="16" rx="2" fill="#DBEAFE" opacity="0.5"/>
  <text x="135" y="152" font-family="sans-serif" font-size="10" fill="#1E293B">15.04.2024</text>

  <text x="60" y="180" font-family="sans-serif" font-size="10" fill="#64748B">Leverandør:</text>
  <rect x="130" y="169" width="100" height="16" rx="2" fill="#DBEAFE" opacity="0.5"/>
  <text x="135" y="180" font-family="sans-serif" font-size="10" fill="#1E293B">Equinor ASA</text>

  <text x="60" y="202" font-family="sans-serif" font-size="10" fill="#64748B">Org.nr:</text>
  <rect x="100" y="191" width="90" height="16" rx="2" fill="#DBEAFE" opacity="0.5"/>
  <text x="105" y="202" font-family="sans-serif" font-size="10" fill="#1E293B">923 609 016</text>

  <!-- Divider line -->
  <line x1="60" y1="218" x2="340" y2="218" stroke="#E2E8F0" stroke-width="1"/>

  <!-- Amount section -->
  <text x="60" y="242" font-family="sans-serif" font-size="10" fill="#64748B">Beløp eksl. MVA:</text>
  <rect x="170" y="231" width="90" height="16" rx="2" fill="#DBEAFE" opacity="0.5"/>
  <text x="175" y="242" font-family="monospace" font-size="10" fill="#1E293B">kr 116 000,-</text>

  <text x="60" y="264" font-family="sans-serif" font-size="10" fill="#64748B">MVA (25%):</text>
  <rect x="130" y="253" width="80" height="16" rx="2" fill="#DBEAFE" opacity="0.5"/>
  <text x="135" y="264" font-family="monospace" font-size="10" fill="#1E293B">kr 29 000,-</text>

  <text x="60" y="290" font-family="sans-serif" font-size="12" font-weight="bold" fill="#1E293B">Totalbeløp:</text>
  <rect x="150" y="277" width="100" height="18" rx="2" fill="#DBEAFE" opacity="0.7"/>
  <text x="155" y="290" font-family="monospace" font-size="12" font-weight="bold" fill="#1E40AF">kr 145 000,-</text>

  <!-- Bank details -->
  <text x="60" y="320" font-family="sans-serif" font-size="10" fill="#64748B">Kontonr:</text>
  <rect x="110" y="309" width="110" height="16" rx="2" fill="#DBEAFE" opacity="0.5"/>
  <text x="115" y="320" font-family="monospace" font-size="10" fill="#1E293B">1503.27.49382</text>

  <text x="60" y="342" font-family="sans-serif" font-size="10" fill="#64748B">KID:</text>
  <rect x="82" y="331" width="90" height="16" rx="2" fill="#DBEAFE" opacity="0.5"/>
  <text x="87" y="342" font-family="monospace" font-size="10" fill="#1E293B">00248190034</text>

  <!-- Page indicator -->
  <rect x="180" y="400" width="28" height="20" rx="4" fill="#1E40AF"/>
  <text x="189" y="414" font-family="monospace" font-size="10" font-weight="600" fill="white">1</text>
  <rect x="212" y="400" width="28" height="20" rx="4" fill="#1E293B" opacity="0.5"/>
  <text x="221" y="414" font-family="monospace" font-size="10" fill="#94A3B8">2</text>

  <!-- RIGHT PANEL: Extracted data -->
  <rect x="400" y="44" width="400" height="406" fill="#F8FAFC"/>

  <!-- Section header -->
  <text x="424" y="76" font-family="monospace" font-size="9" fill="#94A3B8" letter-spacing="2">EKSTRAHERTE DATA</text>
  <line x1="556" y1="72" x2="776" y2="72" stroke="#E2E8F0" stroke-width="1"/>

  <!-- Data rows -->
  <!-- Row 1 -->
  <text x="424" y="106" font-family="monospace" font-size="9" fill="#94A3B8">FAKTURANUMMER</text>
  <text x="570" y="106" font-family="sans-serif" font-size="11" font-weight="600" fill="#1E293B">F-2024-003</text>
  <circle cx="764" cy="102" r="3" fill="#10B981"/>
  <text x="772" y="106" font-family="monospace" font-size="9" fill="#10B981">98%</text>

  <!-- Row 2 -->
  <rect x="416" y="114" width="368" height="24" rx="6" fill="white"/>
  <text x="424" y="130" font-family="monospace" font-size="9" fill="#94A3B8">DATO</text>
  <text x="570" y="130" font-family="sans-serif" font-size="11" font-weight="600" fill="#1E293B">15.03.2024</text>
  <circle cx="764" cy="126" r="3" fill="#10B981"/>
  <text x="772" y="130" font-family="monospace" font-size="9" fill="#10B981">97%</text>

  <!-- Row 3 -->
  <text x="424" y="154" font-family="monospace" font-size="9" fill="#94A3B8">FORFALLSDATO</text>
  <text x="570" y="154" font-family="sans-serif" font-size="11" font-weight="600" fill="#1E293B">15.04.2024</text>
  <circle cx="764" cy="150" r="3" fill="#10B981"/>
  <text x="772" y="154" font-family="monospace" font-size="9" fill="#10B981">95%</text>

  <!-- Row 4 -->
  <rect x="416" y="162" width="368" height="24" rx="6" fill="white"/>
  <text x="424" y="178" font-family="monospace" font-size="9" fill="#94A3B8">LEVERANDØR</text>
  <text x="570" y="178" font-family="sans-serif" font-size="11" font-weight="600" fill="#1E293B">Equinor ASA</text>
  <circle cx="764" cy="174" r="3" fill="#10B981"/>
  <text x="772" y="178" font-family="monospace" font-size="9" fill="#10B981">99%</text>

  <!-- Row 5 -->
  <text x="424" y="202" font-family="monospace" font-size="9" fill="#94A3B8">ORG NUMMER</text>
  <text x="570" y="202" font-family="sans-serif" font-size="11" font-weight="600" fill="#1E293B">923 609 016</text>
  <circle cx="764" cy="198" r="3" fill="#10B981"/>
  <text x="772" y="202" font-family="monospace" font-size="9" fill="#10B981">96%</text>

  <!-- Row 6 -->
  <rect x="416" y="210" width="368" height="24" rx="6" fill="white"/>
  <text x="424" y="226" font-family="monospace" font-size="9" fill="#94A3B8">BELØP</text>
  <text x="570" y="226" font-family="sans-serif" font-size="11" font-weight="600" fill="#1E293B">kr 145 000,-</text>
  <circle cx="764" cy="222" r="3" fill="#10B981"/>
  <text x="772" y="226" font-family="monospace" font-size="9" fill="#10B981">98%</text>

  <!-- Row 7 -->
  <text x="424" y="250" font-family="monospace" font-size="9" fill="#94A3B8">MVA</text>
  <text x="570" y="250" font-family="sans-serif" font-size="11" font-weight="600" fill="#1E293B">kr 29 000,-</text>
  <circle cx="764" cy="246" r="3" fill="#10B981"/>
  <text x="772" y="250" font-family="monospace" font-size="9" fill="#10B981">94%</text>

  <!-- Row 8 -->
  <rect x="416" y="258" width="368" height="24" rx="6" fill="white"/>
  <text x="424" y="274" font-family="monospace" font-size="9" fill="#94A3B8">BELØP EKS MVA</text>
  <text x="570" y="274" font-family="sans-serif" font-size="11" font-weight="600" fill="#1E293B">kr 116 000,-</text>
  <circle cx="764" cy="270" r="3" fill="#10B981"/>
  <text x="772" y="274" font-family="monospace" font-size="9" fill="#10B981">92%</text>

  <!-- Row 9 -->
  <text x="424" y="298" font-family="monospace" font-size="9" fill="#94A3B8">KONTONUMMER</text>
  <text x="570" y="298" font-family="sans-serif" font-size="11" font-weight="600" fill="#1E293B">1503.27.49382</text>
  <circle cx="764" cy="294" r="3" fill="#10B981"/>
  <text x="772" y="298" font-family="monospace" font-size="9" fill="#10B981">91%</text>

  <!-- Row 10 -->
  <rect x="416" y="306" width="368" height="24" rx="6" fill="white"/>
  <text x="424" y="322" font-family="monospace" font-size="9" fill="#94A3B8">KID</text>
  <text x="570" y="322" font-family="sans-serif" font-size="11" font-weight="600" fill="#1E293B">00248190034</text>
  <circle cx="764" cy="318" r="3" fill="#10B981"/>
  <text x="772" y="322" font-family="monospace" font-size="9" fill="#10B981">89%</text>

  <!-- Confidence summary -->
  <rect x="416" y="350" width="368" height="40" rx="8" fill="#F0FDF4" stroke="#BBF7D0" stroke-width="1"/>
  <text x="432" y="370" font-family="sans-serif" font-size="10" font-weight="600" fill="#166534">Konfidens: 94%</text>
  <text x="540" y="370" font-family="sans-serif" font-size="10" fill="#64748B">·</text>
  <text x="552" y="370" font-family="sans-serif" font-size="10" fill="#64748B">Mal: Faktura</text>
  <text x="640" y="370" font-family="sans-serif" font-size="10" fill="#64748B">·</text>
  <text x="652" y="370" font-family="sans-serif" font-size="10" fill="#64748B">Tid: 3.2s</text>

  <!-- Scanning line effect on PDF side -->
  <line x1="40" y1="260" x2="360" y2="260" stroke="#0EA5E9" stroke-width="1.5" opacity="0.4"/>
</svg>