<svg width="800" height="450" viewBox="0 0 800 450" fill="none" xmlns="http://www.w3.org/2000/svg">
  <!-- Black background -->
  <rect width="800" height="450" fill="#000000"/>

  <!-- Top HUD bar -->
  <text x="32" y="28" font-family="monospace" font-size="14" font-weight="bold" fill="white">OPERATOR</text>
  <text x="32" y="46" font-family="monospace" font-size="14" fill="white">000000</text>
  <text x="320" y="28" font-family="monospace" font-size="14" font-weight="bold" fill="white">HIGH SCORE</text>
  <text x="348" y="46" font-family="monospace" font-size="14" fill="white">001200</text>
  <text x="356" y="64" font-family="monospace" font-size="12" fill="white">HMS: 0/0</text>
  <text x="700" y="28" font-family="monospace" font-size="14" font-weight="bold" fill="white">TIME</text>
  <text x="712" y="46" font-family="monospace" font-size="14" fill="white">293</text>

  <!-- Top brick wall -->
  <rect x="0" y="0" width="800" height="10" fill="#00AAAA"/>
  <!-- Top brick pattern rows -->
  <g fill="#00BBBB">
    <rect x="0" y="10" width="32" height="14" rx="1"/>
    <rect x="34" y="10" width="32" height="14" rx="1"/>
    <rect x="68" y="10" width="32" height="14" rx="1"/>
    <rect x="102" y="10" width="32" height="14" rx="1"/>
  </g>

  <!-- Left wall bricks -->
  <g fill="#00AAAA">
    <rect x="0" y="0" width="24" height="450"/>
  </g>
  <g fill="#00BBBB">
    <rect x="0" y="80" width="22" height="12" rx="1"/>
    <rect x="0" y="94" width="22" height="12" rx="1"/>
    <rect x="0" y="108" width="22" height="12" rx="1"/>
    <rect x="0" y="122" width="22" height="12" rx="1"/>
    <rect x="0" y="136" width="22" height="12" rx="1"/>
    <rect x="0" y="150" width="22" height="12" rx="1"/>
    <rect x="0" y="164" width="22" height="12" rx="1"/>
    <rect x="0" y="178" width="22" height="12" rx="1"/>
  </g>

  <!-- Ground bricks -->
  <rect x="0" y="380" width="800" height="70" fill="#00AAAA"/>
  <g fill="#00BBBB">
    <rect x="24" y="382" width="32" height="14" rx="1"/>
    <rect x="58" y="382" width="32" height="14" rx="1"/>
    <rect x="92" y="382" width="32" height="14" rx="1"/>
    <rect x="126" y="382" width="32" height="14" rx="1"/>
    <rect x="160" y="382" width="32" height="14" rx="1"/>
    <rect x="194" y="382" width="32" height="14" rx="1"/>
    <rect x="228" y="382" width="32" height="14" rx="1"/>
    <rect x="262" y="382" width="32" height="14" rx="1"/>
    <rect x="296" y="382" width="32" height="14" rx="1"/>
    <rect x="330" y="382" width="32" height="14" rx="1"/>
    <rect x="364" y="382" width="32" height="14" rx="1"/>
    <rect x="398" y="382" width="32" height="14" rx="1"/>
    <rect x="432" y="382" width="32" height="14" rx="1"/>
    <rect x="466" y="382" width="32" height="14" rx="1"/>
    <rect x="500" y="382" width="32" height="14" rx="1"/>
    <rect x="534" y="382" width="32" height="14" rx="1"/>
    <rect x="568" y="382" width="32" height="14" rx="1"/>
    <rect x="602" y="382" width="32" height="14" rx="1"/>
    <rect x="636" y="382" width="32" height="14" rx="1"/>
    <rect x="670" y="382" width="32" height="14" rx="1"/>
    <rect x="704" y="382" width="32" height="14" rx="1"/>
    <rect x="738" y="382" width="32" height="14" rx="1"/>
  </g>

  <!-- Floating brick platform with coins -->
  <rect x="240" y="260" width="260" height="18" fill="#00AAAA"/>
  <g fill="#00BBBB">
    <rect x="240" y="260" width="32" height="16" rx="1"/>
    <rect x="274" y="260" width="32" height="16" rx="1"/>
    <rect x="308" y="260" width="32" height="16" rx="1"/>
    <rect x="342" y="260" width="32" height="16" rx="1"/>
    <rect x="376" y="260" width="32" height="16" rx="1"/>
    <rect x="410" y="260" width="32" height="16" rx="1"/>
    <rect x="444" y="260" width="32" height="16" rx="1"/>
    <rect x="468" y="260" width="32" height="16" rx="1"/>
  </g>

  <!-- Coins on platform -->
  <g fill="#FF8800">
    <ellipse cx="272" cy="244" rx="8" ry="10"/>
    <ellipse cx="296" cy="244" rx="8" ry="10"/>
    <ellipse cx="320" cy="244" rx="8" ry="10"/>
    <ellipse cx="344" cy="244" rx="8" ry="10"/>
    <ellipse cx="368" cy="244" rx="8" ry="10"/>
    <ellipse cx="392" cy="244" rx="8" ry="10"/>
    <ellipse cx="416" cy="244" rx="8" ry="10"/>
    <ellipse cx="440" cy="244" rx="8" ry="10"/>
  </g>

  <!-- Right platform structure -->
  <rect x="540" y="220" width="160" height="160" fill="#00AAAA"/>
  <g fill="#00BBBB">
    <rect x="540" y="220" width="32" height="14" rx="1"/>
    <rect x="574" y="220" width="32" height="14" rx="1"/>
    <rect x="608" y="220" width="32" height="14" rx="1"/>
    <rect x="642" y="220" width="32" height="14" rx="1"/>
    <rect x="676" y="220" width="24" height="14" rx="1"/>
  </g>
  <!-- Gap in structure -->
  <rect x="590" y="280" width="60" height="100" fill="#000000"/>

  <!-- Coins on right structure -->
  <g fill="#FF8800">
    <ellipse cx="566" cy="204" rx="8" ry="10"/>
    <ellipse cx="590" cy="204" rx="8" ry="10"/>
    <ellipse cx="614" cy="204" rx="8" ry="10"/>
    <ellipse cx="638" cy="204" rx="8" ry="10"/>
    <ellipse cx="570" cy="310" rx="8" ry="10"/>
    <ellipse cx="660" cy="310" rx="8" ry="10"/>
  </g>

  <!-- Mario character (pixel art style) -->
  <!-- Hat -->
  <rect x="100" y="346" width="16" height="6" fill="#FF0000"/>
  <!-- Face -->
  <rect x="96" y="352" width="20" height="8" fill="#FFAA77"/>
  <!-- Body -->
  <rect x="98" y="360" width="16" height="10" fill="#FF0000"/>
  <!-- Legs -->
  <rect x="98" y="370" width="6" height="8" fill="#0000AA"/>
  <rect x="108" y="370" width="6" height="8" fill="#0000AA"/>

  <!-- Enemy (blue blob) -->
  <circle cx="200" cy="370" r="10" fill="#44BBFF"/>
  <rect x="192" y="370" width="16" height="8" fill="#44BBFF"/>
  <circle cx="196" cy="366" r="2" fill="white"/>
  <circle cx="204" cy="366" r="2" fill="white"/>
</svg>
